<svg width="373" height="331" viewBox="0 0 373 331" fill="none" xmlns="http://www.w3.org/2000/svg">
<g clip-path="url(#clip0_37_22)">
<path d="M42.7848 332L42.4602 331.88C37.0275 329.832 32.1062 326.626 28.0383 322.486C23.9705 318.346 20.8536 313.37 18.9044 307.904C17.8355 304.83 17.1583 301.633 16.8886 298.39L16.8621 298.08L17.168 298.135C20.8197 298.79 24.6531 299.152 26.3611 299.293L16.7788 292.957L16.7961 292.628C16.869 291.116 17.3934 289.66 18.3015 288.449C19.2097 287.237 20.4601 286.325 21.8916 285.83C23.3368 285.297 24.9087 285.208 26.4047 285.576C27.9008 285.943 29.2525 286.75 30.2857 287.892C31.2384 288.925 32.2455 289.965 33.2194 290.971C36.5662 294.428 40.027 298.002 42.2153 302.221C43.8403 305.431 44.7272 308.964 44.8113 312.56C44.8954 316.157 44.1746 319.727 42.7014 323.009L42.7848 332Z" fill="#F2F2F2"/>
<path d="M236.67 325.86L236.666 325.826C236.242 316.428 234.516 307.134 231.538 298.209L231.535 298.194C231.362 297.278 231.412 296.333 231.682 295.44C232.085 294.202 232.919 293.149 234.032 292.473C235.145 291.796 236.465 291.542 237.75 291.755C240.494 292.27 243.332 291.786 245.749 290.39C246.506 289.951 247.355 289.693 248.229 289.635C249.102 289.577 249.978 289.722 250.786 290.057C251.548 290.367 252.227 290.852 252.769 291.472C253.31 292.091 253.699 292.829 253.904 293.626C253.936 293.753 253.965 293.881 253.989 294.011C254.076 303.454 255.812 312.809 259.118 321.655L259.12 321.666C259.29 322.566 259.245 323.495 258.987 324.374C258.729 325.254 258.266 326.059 257.636 326.725C257.078 327.291 256.402 327.727 255.656 328C254.91 328.274 254.113 328.38 253.321 328.31C250.444 328.114 247.485 328.697 244.274 330.094C243.153 330.592 241.892 330.681 240.712 330.343C239.689 330.044 238.769 329.466 238.055 328.674C237.341 327.883 236.862 326.908 236.67 325.86Z" fill="#6C63FF"/>
<path d="M144.691 196.759V320.174H231.211V196.759C231.213 195.872 230.929 195.007 230.403 194.292C229.876 193.577 229.134 193.05 228.285 192.788C227.885 192.656 227.466 192.591 227.045 192.596H148.869C148.321 192.595 147.779 192.702 147.272 192.91C146.765 193.119 146.305 193.425 145.917 193.812C145.529 194.199 145.221 194.658 145.01 195.164C144.8 195.669 144.691 196.212 144.691 196.759ZM178.456 239.165C178.479 236.732 179.461 234.406 181.191 232.694C182.921 230.981 185.257 230.02 187.692 230.02C190.127 230.02 192.464 230.981 194.193 232.694C195.923 234.406 196.906 236.732 196.928 239.165V253.485C196.917 255.925 195.938 258.262 194.208 259.983C192.477 261.705 190.134 262.671 187.692 262.671C185.25 262.671 182.908 261.705 181.177 259.983C179.446 258.262 178.468 255.925 178.456 253.485V239.165Z" fill="#F2F2F2"/>
<path d="M144.426 316.228V328.129C144.428 328.745 144.673 329.336 145.108 329.773C145.543 330.21 146.133 330.458 146.75 330.463H229.152C229.769 330.46 230.361 330.213 230.796 329.775C231.232 329.338 231.476 328.746 231.476 328.129V316.228H144.426Z" fill="#E6E6E6"/>
<path d="M8.58252 10.8182V236.157C8.58479 239.028 9.72734 241.782 11.7593 243.812C13.7913 245.843 16.5465 246.985 19.4201 246.987H353.58C356.454 246.985 359.209 245.843 361.241 243.812C363.273 241.782 364.415 239.028 364.418 236.157V10.8182C364.411 7.94902 363.266 5.19953 361.235 3.17186C359.204 1.1442 356.451 0.00364199 353.58 0H19.4201C16.549 0.00365506 13.7964 1.14421 11.7651 3.17188C9.73375 5.19954 8.58935 7.94903 8.58252 10.8182Z" fill="#E6E6E6"/>
<path d="M350.792 7.82178H22.2076C20.6704 7.82512 19.1973 8.43767 18.1114 9.52503C17.0256 10.6124 16.4157 12.0858 16.4155 13.6219V233.377C16.4182 234.911 17.0292 236.382 18.1149 237.467C19.2005 238.552 20.6723 239.163 22.2076 239.165H350.792C352.328 239.163 353.799 238.552 354.885 237.467C355.971 236.382 356.582 234.911 356.584 233.377V13.6219C356.584 12.0858 355.974 10.6124 354.888 9.52502C353.803 8.43766 352.329 7.82512 350.792 7.82178ZM267.906 163.948C267.424 164.899 266.688 165.697 265.778 166.254C264.869 166.811 263.823 167.105 262.757 167.102L262.722 167.1C259.572 166.661 256.411 166.372 253.238 166.232C253.73 166.585 254.164 167.013 254.522 167.502C254.977 168.153 255.282 168.897 255.415 169.68C255.549 170.463 255.507 171.265 255.294 172.03C254.576 174.822 254.61 177.836 255.398 181.245C255.684 182.437 255.541 183.692 254.994 184.79C254.513 185.741 253.776 186.539 252.867 187.096C251.958 187.653 250.912 187.947 249.846 187.944L249.811 187.942C242.289 186.895 234.672 186.692 227.105 187.337C227.075 187.528 227.037 187.719 226.988 187.91C226.271 190.701 226.304 193.715 227.093 197.124C227.379 198.317 227.236 199.572 226.689 200.67C226.207 201.621 225.471 202.419 224.562 202.976C223.653 203.533 222.607 203.827 221.54 203.824L221.506 203.822C213.78 202.747 205.956 202.563 198.189 203.273C198.13 205.211 198.331 207.149 198.788 209.034C199.074 210.227 198.931 211.482 198.384 212.58C197.902 213.53 197.166 214.329 196.257 214.886C195.347 215.443 194.301 215.736 193.235 215.734L193.201 215.731C183.877 214.433 174.417 214.433 165.093 215.731H165.078C164.145 215.735 163.224 215.513 162.395 215.084C161.25 214.463 160.366 213.452 159.904 212.234C159.442 211.017 159.432 209.675 159.876 208.451C160.158 207.654 160.367 206.834 160.502 206C151.957 205.016 143.321 205.118 134.802 206.303H134.786C133.853 206.306 132.932 206.084 132.103 205.656C130.958 205.034 130.074 204.023 129.612 202.806C129.15 201.589 129.14 200.246 129.584 199.022C130.592 196.42 130.633 193.544 129.701 190.914C129.261 189.681 129.261 188.334 129.701 187.101C123.278 186.774 116.839 187.055 110.469 187.942H110.454C109.52 187.945 108.6 187.723 107.771 187.295C106.626 186.674 105.742 185.662 105.28 184.445C104.817 183.228 104.808 181.885 105.252 180.661C106.259 178.059 106.301 175.183 105.368 172.553C105.074 171.729 104.975 170.848 105.077 169.979C105.18 169.11 105.482 168.276 105.959 167.543C106.404 166.85 107.004 166.272 107.713 165.853C108.421 165.434 109.218 165.187 110.039 165.131C110.17 165.122 110.302 165.117 110.434 165.117C113.698 165.687 116.993 166.059 120.301 166.231C119.276 165.558 118.507 164.559 118.12 163.396C117.732 162.232 117.747 160.972 118.163 159.819C119.171 157.217 119.212 154.34 118.279 151.711C117.986 150.886 117.886 150.006 117.989 149.137C118.091 148.268 118.393 147.434 118.871 146.701C118.912 146.637 118.961 146.58 119.005 146.518C116.651 146.68 114.302 146.924 111.959 147.25H111.944C111.01 147.254 110.09 147.032 109.26 146.603C108.115 145.982 107.232 144.971 106.769 143.753C106.307 142.536 106.297 141.193 106.742 139.969C107.749 137.367 107.79 134.491 106.858 131.861C106.564 131.037 106.465 130.156 106.567 129.287C106.67 128.418 106.972 127.584 107.449 126.851C107.894 126.159 108.494 125.58 109.203 125.161C109.911 124.742 110.708 124.495 111.529 124.439C111.66 124.43 111.791 124.425 111.924 124.425C115.848 125.112 119.817 125.511 123.799 125.62C123.299 124.899 122.977 124.069 122.86 123.199C122.743 122.329 122.836 121.443 123.129 120.616C124.136 118.014 124.178 115.137 123.245 112.508C122.951 111.683 122.852 110.803 122.954 109.934C123.057 109.065 123.359 108.231 123.836 107.498C124.281 106.805 124.881 106.227 125.59 105.808C126.298 105.389 127.095 105.141 127.916 105.085C128.047 105.077 128.179 105.072 128.312 105.072C131.632 105.652 134.986 106.028 138.352 106.195C137.995 105.518 137.781 104.775 137.725 104.011C137.669 103.248 137.771 102.481 138.026 101.759C139.034 99.1569 139.075 96.2803 138.143 93.6506C137.849 92.8263 137.749 91.9454 137.852 91.0764C137.955 90.2074 138.256 89.3738 138.734 88.6404C139.179 87.9481 139.779 87.3694 140.487 86.9505C141.196 86.5317 141.993 86.2843 142.814 86.2283C142.945 86.2195 143.076 86.2149 143.209 86.2149C147.116 86.8984 151.068 87.2971 155.034 87.4079C154.494 86.1333 154.45 84.7032 154.91 83.3979C155.918 80.7959 155.959 77.9194 155.027 75.2896C154.733 74.4654 154.633 73.5845 154.736 72.7155C154.838 71.8465 155.14 71.0129 155.618 70.2795C156.062 69.5872 156.663 69.0085 157.371 68.5896C158.08 68.1708 158.876 67.9234 159.698 67.8673C159.829 67.8586 159.96 67.854 160.093 67.854C169.399 69.4909 178.92 69.4921 188.227 67.8577H188.238C188.956 68.0055 189.697 68.0055 190.416 67.8577H190.427C199.734 69.4921 209.255 69.4909 218.561 67.854C218.694 67.854 218.825 67.8586 218.956 67.8673C219.777 67.9234 220.574 68.1708 221.282 68.5896C221.991 69.0085 222.591 69.5872 223.036 70.2795C223.514 71.0129 223.815 71.8465 223.918 72.7155C224.02 73.5845 223.921 74.4654 223.627 75.2896C222.695 77.9194 222.736 80.7959 223.743 83.3979C224.204 84.7032 224.16 86.1333 223.62 87.4079C227.585 87.2971 231.537 86.8984 235.445 86.2149C235.578 86.2149 235.709 86.2195 235.84 86.2283C236.661 86.2843 237.458 86.5317 238.166 86.9505C238.875 87.3694 239.475 87.9481 239.92 88.6404C240.397 89.3738 240.699 90.2074 240.802 91.0764C240.904 91.9454 240.805 92.8263 240.511 93.6506C239.579 96.2803 239.62 99.1569 240.627 101.759C240.882 102.481 240.985 103.248 240.929 104.011C240.873 104.775 240.659 105.518 240.301 106.195C243.668 106.028 247.022 105.652 250.342 105.072C250.475 105.072 250.607 105.077 250.738 105.085C251.559 105.141 252.355 105.389 253.064 105.808C253.772 106.227 254.373 106.805 254.817 107.498C255.295 108.231 255.597 109.065 255.699 109.934C255.802 110.803 255.702 111.683 255.408 112.508C254.476 115.137 254.517 118.014 255.525 120.616C255.819 121.445 255.911 122.333 255.793 123.205C255.675 124.077 255.351 124.909 254.847 125.631C255.291 125.965 255.683 126.363 256.012 126.81C256.467 127.461 256.772 128.205 256.905 128.988C257.038 129.771 256.997 130.573 256.783 131.338C256.066 134.13 256.1 137.144 256.888 140.553C257.174 141.745 257.031 143.001 256.484 144.098C256.284 144.489 256.04 144.856 255.758 145.192C258.082 144.988 260.401 144.684 262.714 144.279H262.726C263.643 144.276 264.548 144.49 265.366 144.903C266.184 145.317 266.893 145.919 267.433 146.66C267.888 147.311 268.193 148.055 268.327 148.837C268.46 149.62 268.418 150.423 268.205 151.188C267.487 153.979 267.521 156.993 268.31 160.402C268.596 161.595 268.453 162.85 267.906 163.948Z" fill="white"/>
<path d="M340.135 38.094H32.6794C32.3598 38.087 32.0556 37.9551 31.8321 37.7268C31.6086 37.4984 31.4834 37.1917 31.4834 36.8722C31.4834 36.5528 31.6086 36.246 31.8321 36.0176C32.0556 35.7893 32.3598 35.6574 32.6794 35.6504H340.135C340.454 35.6574 340.758 35.7893 340.982 36.0176C341.205 36.246 341.331 36.5528 341.331 36.8722C341.331 37.1917 341.205 37.4984 340.982 37.7268C340.758 37.9551 340.454 38.087 340.135 38.094Z" fill="#E6E6E6"/>
<path d="M53.6083 29.4121C57.5656 29.4121 60.7736 26.1348 60.7736 22.0921C60.7736 18.0494 57.5656 14.7721 53.6083 14.7721C49.6509 14.7721 46.4429 18.0494 46.4429 22.0921C46.4429 26.1348 49.6509 29.4121 53.6083 29.4121Z" fill="#3F3D56"/>
<path d="M78.3617 29.4121C82.319 29.4121 85.5271 26.1348 85.5271 22.0921C85.5271 18.0494 82.319 14.7721 78.3617 14.7721C74.4043 14.7721 71.1963 18.0494 71.1963 22.0921C71.1963 26.1348 74.4043 29.4121 78.3617 29.4121Z" fill="#3F3D56"/>
<path d="M103.115 29.4121C107.072 29.4121 110.28 26.1348 110.28 22.0921C110.28 18.0494 107.072 14.7721 103.115 14.7721C99.1573 14.7721 95.9492 18.0494 95.9492 22.0921C95.9492 26.1348 99.1573 29.4121 103.115 29.4121Z" fill="#3F3D56"/>
<path d="M325.229 16.5822H307.648C307.301 16.5901 306.97 16.7337 306.727 16.9822C306.484 17.2307 306.348 17.5644 306.348 17.9119C306.348 18.2594 306.484 18.5931 306.727 18.8416C306.97 19.0901 307.301 19.2336 307.648 19.2416H325.229C325.579 19.2368 325.913 19.0946 326.158 18.8458C326.404 18.5969 326.542 18.2614 326.542 17.9119C326.542 17.5623 326.404 17.2268 326.158 16.978C325.913 16.7291 325.579 16.5869 325.229 16.5822H325.229Z" fill="#3F3D56"/>
<path d="M325.229 21.576H307.648C307.301 21.5839 306.97 21.7275 306.727 21.976C306.484 22.2245 306.348 22.5582 306.348 22.9057C306.348 23.2532 306.484 23.587 306.727 23.8355C306.97 24.084 307.301 24.2275 307.648 24.2354H325.229C325.579 24.2307 325.913 24.0886 326.159 23.8397C326.405 23.5909 326.542 23.2553 326.542 22.9057C326.542 22.5561 326.405 22.2206 326.159 21.9717C325.913 21.7229 325.579 21.5807 325.229 21.576H325.229Z" fill="#3F3D56"/>
<path d="M325.229 26.5699H307.648C307.301 26.5779 306.97 26.7215 306.727 26.97C306.484 27.2185 306.348 27.5522 306.348 27.8997C306.348 28.2471 306.484 28.5808 306.727 28.8293C306.97 29.0778 307.301 29.2214 307.648 29.2294H325.229C325.579 29.2246 325.913 29.0824 326.158 28.8335C326.404 28.5847 326.542 28.2492 326.542 27.8997C326.542 27.5501 326.404 27.2146 326.158 26.9658C325.913 26.7169 325.579 26.5747 325.229 26.5699H325.229Z" fill="#3F3D56"/>
<path d="M190.122 209.88L190.087 209.878C180.763 208.579 171.304 208.579 161.98 209.878H161.965C161.031 209.881 160.111 209.659 159.282 209.231C158.137 208.609 157.253 207.598 156.79 206.381C156.328 205.163 156.318 203.821 156.763 202.597C157.77 199.995 157.811 197.118 156.879 194.489C156.585 193.664 156.486 192.783 156.588 191.914C156.691 191.045 156.993 190.212 157.47 189.478C157.915 188.786 158.515 188.207 159.224 187.789C159.932 187.37 160.729 187.122 161.55 187.066C161.681 187.058 161.812 187.053 161.945 187.053C171.252 188.69 180.772 188.691 190.079 187.057H190.091C191.008 187.053 191.913 187.267 192.731 187.681C193.549 188.095 194.257 188.697 194.798 189.438C195.253 190.089 195.558 190.832 195.691 191.615C195.825 192.398 195.783 193.201 195.57 193.966C194.852 196.757 194.886 199.771 195.674 203.18C195.96 204.373 195.817 205.628 195.27 206.726C194.789 207.677 194.052 208.475 193.143 209.032C192.234 209.589 191.188 209.883 190.122 209.88Z" fill="#6C63FF"/>
<path d="M218.796 161.225L211.294 155.022C205.669 157.968 197.11 169.731 197.11 169.731L177.364 183.923C176.609 183.959 175.878 184.193 175.243 184.601C174.608 185.009 174.091 185.578 173.746 186.249C173.4 186.92 173.238 187.67 173.275 188.423C173.311 189.177 173.546 189.908 173.956 190.542C174.365 191.176 174.934 191.692 175.606 192.036C176.278 192.38 177.029 192.542 177.783 192.504C178.537 192.467 179.268 192.231 179.902 191.821C180.536 191.412 181.051 190.842 181.395 190.17L208.224 176.003L218.796 161.225Z" fill="#FFB8B8"/>
<path d="M231.451 137.616C232.603 138.591 233.526 139.808 234.154 141.179C234.782 142.551 235.099 144.044 235.084 145.553C235.069 147.061 234.721 148.548 234.066 149.907C233.411 151.266 232.463 152.464 231.292 153.415L226.522 157.29C226.522 157.29 214.623 174.407 208.43 176.393L192.53 184.694L185.36 177.511L199.771 165.775C199.771 165.775 206.399 159.51 207.062 154.925C207.469 152.116 212.225 144.466 216.993 138.791C217.864 137.764 218.93 136.919 220.128 136.304C221.327 135.689 222.635 135.316 223.978 135.207C225.321 135.098 226.672 135.254 227.955 135.668C229.237 136.081 230.425 136.743 231.451 137.616Z" fill="#3F3D56"/>
<path d="M216.035 323.386L209.258 323.386L206.035 297.264L216.037 297.264L216.035 323.386Z" fill="#FFB6B6"/>
<path d="M216.274 330.451L195.434 330.45V330.187C195.434 328.037 196.289 325.975 197.81 324.455C199.331 322.935 201.394 322.081 203.546 322.081H203.546L207.353 319.195L214.455 322.081L216.274 322.082L216.274 330.451Z" fill="#2F2E41"/>
<path d="M267.672 287.741L264.463 293.706L239.913 284.174L244.65 275.37L267.672 287.741Z" fill="#FFB6B6"/>
<path d="M274.012 290.876L264.143 309.219L263.911 309.094C262.016 308.076 260.604 306.347 259.984 304.289C259.365 302.23 259.589 300.01 260.608 298.116L260.608 298.116L259.867 293.399L265.774 288.514L266.636 286.913L274.012 290.876Z" fill="#2F2E41"/>
<path d="M203.223 203.762L197.241 251.579L200.232 267.611L254.064 291.178L257.055 281.465C243.294 273.051 228.585 260.317 219.317 259.381C219.317 259.381 218.548 250.895 225.188 245.658C226.527 244.601 226.234 243.172 226.776 241.876C227.149 240.985 228.631 240.057 229.01 239.143C229.502 237.958 228.893 236.781 229.388 235.577C229.666 234.9 230.72 234.858 230.997 234.18C231.468 233.025 231.159 231.236 231.619 230.094C232.6 227.654 233.544 225.269 234.406 223.032C237.088 216.071 238.975 210.556 238.737 209.365C237.989 205.629 203.223 203.762 203.223 203.762Z" fill="#2F2E41"/>
<path d="M202.193 251.441L199.063 271.635L206.961 312.845H217.429C221.189 298.998 221.383 280.799 217.802 265.401L202.193 251.441Z" fill="#2F2E41"/>
<path d="M208.918 145.338L213.743 136.936L218.924 132.782L228.644 131.288L231.344 133.363C241.062 148.206 244.686 166.219 241.463 183.661L240.705 187.767L240.223 190.373L240.432 193.488L238.81 198.024L239.033 201.345L239.152 203.118L239.272 204.898L239.439 207.383C239.738 208.801 238.233 208.614 238.446 209.864C238.819 212.06 240.496 215.312 237.949 215.323L211.63 209.864C204.944 209.892 198.719 201.924 205.174 195.473L208.918 145.338Z" fill="#3F3D56"/>
<path d="M221.237 128.947C228.295 128.947 234.017 123.229 234.017 116.176C234.017 109.122 228.295 103.404 221.237 103.404C214.179 103.404 208.457 109.122 208.457 116.176C208.457 123.229 214.179 128.947 221.237 128.947Z" fill="#FFB8B8"/>
<path d="M221.453 128.585C223.323 128.614 225.192 128.483 227.04 128.194C228.872 127.822 232.969 124.822 234.111 123.016C234.96 121.675 235.503 119.58 235.808 118.059C236.22 116.046 236.205 113.969 235.762 111.963C235.32 109.957 234.461 108.065 233.241 106.412C232.772 105.72 232.124 105.168 231.367 104.814C231.3 104.788 231.231 104.765 231.161 104.745C230.058 104.455 229.067 103.842 228.314 102.984C228.169 102.811 228.01 102.648 227.841 102.498C226.991 101.781 225.983 101.275 224.9 101.022C223.152 100.554 220.622 101.019 217.38 102.403C215.752 103.098 213.97 102.847 212.6 102.55C212.523 102.535 212.444 102.54 212.37 102.566C212.296 102.591 212.23 102.635 212.178 102.694C211.595 103.241 210.827 103.547 210.027 103.551C209.537 103.573 209.024 104.25 208.402 105.134C208.262 105.334 208.097 105.569 207.979 105.711L207.963 105.437L207.686 105.743C207.25 106.222 206.943 106.804 206.793 107.434C206.644 108.064 206.656 108.722 206.829 109.346C207.002 109.97 207.33 110.54 207.783 111.004C208.236 111.467 208.799 111.808 209.42 111.995C209.912 112.126 210.417 112.207 210.926 112.235C211.234 112.263 211.553 112.291 211.859 112.344C212.84 112.545 213.752 112.997 214.506 113.655C215.26 114.313 215.83 115.155 216.161 116.099C216.24 116.318 216.367 116.515 216.534 116.676C216.701 116.837 216.902 116.958 217.123 117.029C217.344 117.1 217.578 117.119 217.808 117.086C218.037 117.052 218.256 116.966 218.447 116.834C218.765 116.586 219.139 116.419 219.536 116.347C219.933 116.275 220.341 116.299 220.727 116.419C221.06 116.604 221.319 116.898 221.461 117.251C221.633 117.645 221.919 117.978 222.282 118.209C223.523 118.848 223.609 121.681 223.163 124.043C222.733 126.319 221.884 127.966 221.098 128.047C220.492 128.11 220.423 128.153 220.379 128.26L220.34 128.355L220.408 128.445C220.742 128.566 221.099 128.614 221.453 128.585Z" fill="#2F2E41"/>
<path d="M195.584 121.053L195.55 121.05C186.225 119.752 176.766 119.752 167.442 121.05H167.427C166.494 121.054 165.573 120.832 164.744 120.404C163.599 119.782 162.715 118.771 162.253 117.554C161.791 116.336 161.781 114.994 162.225 113.77C163.233 111.168 163.274 108.291 162.341 105.661C162.048 104.837 161.948 103.956 162.051 103.087C162.153 102.218 162.455 101.385 162.933 100.651C163.377 99.959 163.978 99.3803 164.686 98.9614C165.395 98.5426 166.191 98.2952 167.012 98.2392C167.143 98.2304 167.275 98.2258 167.408 98.2258C176.714 99.8627 186.235 99.8639 195.541 98.2295H195.553C196.47 98.2262 197.375 98.4404 198.193 98.8542C199.011 99.2681 199.72 99.8699 200.26 100.61C200.715 101.262 201.02 102.005 201.154 102.788C201.287 103.571 201.245 104.374 201.032 105.139C200.314 107.93 200.348 110.944 201.137 114.353C201.423 115.546 201.28 116.801 200.733 117.899C200.251 118.85 199.515 119.648 198.606 120.205C197.696 120.762 196.65 121.055 195.584 121.053Z" fill="#6C63FF"/>
<path d="M207.535 151.133L212.824 142.964C209.238 137.725 196.547 130.605 196.547 130.605L180.135 112.666C180.011 111.922 179.694 111.223 179.214 110.64C178.734 110.058 178.109 109.612 177.401 109.347C176.694 109.083 175.93 109.009 175.185 109.134C174.44 109.258 173.741 109.577 173.159 110.057C172.576 110.537 172.131 111.163 171.867 111.87C171.603 112.577 171.53 113.341 171.656 114.085C171.782 114.829 172.101 115.527 172.583 116.108C173.064 116.69 173.69 117.134 174.398 117.397L191.614 142.369L207.535 151.133Z" fill="#FFB8B8"/>
<path d="M232.478 160.934C231.644 162.191 230.542 163.249 229.252 164.033C227.962 164.816 226.515 165.306 225.014 165.467C223.513 165.629 221.995 165.457 220.568 164.966C219.141 164.474 217.84 163.674 216.757 162.623L212.349 158.341C212.349 158.341 193.868 148.698 191.171 142.784L179.062 125.62L187.181 118.301L201.293 131.121C201.293 131.121 207.791 138.629 212.426 138.752C215.265 138.827 223.424 142.654 229.62 146.722C230.743 147.467 231.707 148.426 232.459 149.543C233.21 150.661 233.733 151.916 233.999 153.236C234.264 154.556 234.267 155.915 234.006 157.236C233.745 158.557 233.225 159.814 232.478 160.934Z" fill="#3F3D56"/>
<path d="M109.37 330.377L109.335 330.374C100.011 329.076 90.5519 329.076 81.2278 330.374H81.2128C80.2793 330.378 79.3587 330.156 78.5296 329.727C77.3846 329.106 76.5007 328.095 76.0385 326.877C75.5763 325.66 75.5665 324.317 76.0108 323.093C77.0182 320.491 77.0595 317.615 76.1271 314.985C75.8333 314.161 75.7338 313.28 75.8363 312.411C75.9389 311.542 76.2407 310.708 76.7183 309.975C77.1628 309.283 77.7633 308.704 78.4718 308.285C79.1802 307.866 79.9769 307.619 80.7981 307.563C80.9291 307.554 81.0605 307.55 81.1934 307.55C90.4996 309.186 100.02 309.188 109.327 307.553H109.339C110.256 307.55 111.161 307.764 111.979 308.178C112.797 308.592 113.506 309.194 114.046 309.934C114.501 310.585 114.806 311.329 114.939 312.112C115.073 312.895 115.031 313.698 114.818 314.463C114.1 317.254 114.134 320.268 114.922 323.677C115.208 324.87 115.065 326.125 114.518 327.223C114.037 328.173 113.3 328.972 112.391 329.529C111.482 330.086 110.436 330.379 109.37 330.377Z" fill="#6C63FF"/>
<path d="M117.315 309.535L117.281 309.532C107.957 308.234 98.4977 308.234 89.1736 309.532H89.1586C88.2251 309.536 87.3045 309.314 86.4754 308.885C85.3304 308.264 84.4465 307.253 83.9843 306.035C83.5221 304.818 83.5123 303.475 83.9566 302.251C84.964 299.649 85.0053 296.773 84.0729 294.143C83.7791 293.319 83.6796 292.438 83.7821 291.569C83.8847 290.7 84.1865 289.866 84.6641 289.133C85.1086 288.441 85.7091 287.862 86.4176 287.443C87.126 287.024 87.9227 286.777 88.7439 286.721C88.8749 286.712 89.0063 286.708 89.1392 286.708C98.4454 288.344 107.966 288.346 117.273 286.711H117.284C118.202 286.708 119.106 286.922 119.925 287.336C120.743 287.75 121.451 288.352 121.992 289.092C122.447 289.743 122.752 290.487 122.885 291.27C123.019 292.053 122.977 292.856 122.763 293.62C122.046 296.412 122.08 299.426 122.868 302.835C123.154 304.027 123.011 305.283 122.464 306.38C121.983 307.331 121.246 308.13 120.337 308.687C119.428 309.244 118.382 309.537 117.315 309.535Z" fill="#6C63FF"/>
<path d="M47.787 315.216L47.8083 315.189C54.1089 308.199 59.4091 300.37 63.5575 291.925L63.5659 291.912C64.0861 291.137 64.7858 290.5 65.6056 290.054C66.7622 289.454 68.0956 289.289 69.3636 289.589C70.6315 289.888 71.7499 290.632 72.5154 291.686C74.1075 293.978 76.4686 295.624 79.1707 296.325C80.0185 296.544 80.8044 296.955 81.4672 297.527C82.13 298.099 82.6519 298.816 82.9921 299.622C83.3168 300.378 83.46 301.199 83.4103 302.02C83.3605 302.841 83.1191 303.639 82.7054 304.351C82.6393 304.464 82.5694 304.575 82.495 304.685C75.9238 311.471 70.5881 319.35 66.7281 327.969L66.7216 327.979C66.2104 328.74 65.5259 329.369 64.7244 329.814C63.9229 330.26 63.0271 330.509 62.1105 330.541C61.3159 330.553 60.5285 330.389 59.8049 330.06C59.0812 329.732 58.4392 329.248 57.9248 328.642C56.0134 326.484 53.4962 324.824 50.2288 323.566C49.08 323.135 48.1198 322.313 47.5164 321.245C46.9981 320.314 46.749 319.257 46.7968 318.192C46.8446 317.128 47.1874 316.097 47.787 315.216Z" fill="#6C63FF"/>
<path d="M372.408 331.134L0.59103 331.286C0.434511 331.286 0.284561 331.223 0.174045 331.112C0.0635291 331.002 0.00146484 330.852 0.00146484 330.695C0.00146484 330.539 0.0635291 330.389 0.174045 330.278C0.284561 330.167 0.434511 330.105 0.59103 330.104L372.408 329.952C372.565 329.952 372.715 330.015 372.825 330.125C372.936 330.236 372.998 330.386 372.998 330.543C372.998 330.699 372.936 330.849 372.825 330.96C372.715 331.071 372.565 331.133 372.408 331.134Z" fill="#CACACA"/>
</g>
<defs>
<clipPath id="clip0_37_22">
<rect width="373" height="332" fill="white"/>
</clipPath>
</defs>
</svg>
