<svg width="60" height="60" viewBox="0 0 60 60" fill="none" xmlns="http://www.w3.org/2000/svg">
<path d="M27.945 48.9225C28.1744 49.2556 28.4813 49.528 28.8392 49.7161C29.1972 49.9043 29.5956 50.0026 30 50.0026C30.4044 50.0026 30.8028 49.9043 31.1608 49.7161C31.5188 49.528 31.8257 49.2556 32.055 48.9225L54.555 16.4225C54.8155 16.0476 54.9682 15.6086 54.9966 15.153C55.025 14.6975 54.9281 14.2428 54.7162 13.8385C54.5044 13.4342 54.1858 13.0956 53.7951 12.8596C53.4044 12.6237 52.9565 12.4993 52.5 12.5H7.50002C7.04463 12.5019 6.59837 12.6279 6.20923 12.8644C5.82008 13.101 5.50278 13.4391 5.29145 13.8425C5.08011 14.2459 4.98274 14.6992 5.0098 15.1538C5.03686 15.6084 5.18733 16.047 5.44502 16.4225L27.945 48.9225Z" fill="#616161"/>
</svg>
