<svg width="400" height="284" viewBox="0 0 400 284" fill="none" xmlns="http://www.w3.org/2000/svg">
<g clip-path="url(#clip0_112_223)">
<path d="M41.3721 276.365L48.0108 276.365L51.1693 250.756L41.3706 250.757L41.3721 276.365Z" fill="#FFB6B6"/>
<path d="M41.138 283.291L61.5543 283.29V283.032C61.5541 280.925 60.7168 278.903 59.2266 277.413C57.7364 275.923 55.7152 275.086 53.6077 275.086H53.6072L49.8779 272.256L42.9199 275.086L41.1377 275.086L41.138 283.291Z" fill="#2F2E41"/>
<path d="M52.0933 245.382L57.3199 249.476L75.5983 231.264L67.8842 225.222L52.0933 245.382Z" fill="#FFB6B6"/>
<path d="M47.6377 250.69L63.7102 263.28L63.8694 263.077C65.169 261.417 65.7562 259.31 65.5021 257.218C65.2479 255.126 64.1731 253.22 62.5141 251.92L62.5137 251.92L61.3227 247.393L54.1002 245.33L52.6972 244.231L47.6377 250.69Z" fill="#2F2E41"/>
<path d="M83.3504 128.701C83.3504 128.701 92.1619 137.839 88.2457 159.051L91.5334 195.373L92.382 197.054C92.8876 198.056 93.0642 199.192 92.8864 200.3C92.7087 201.408 92.1858 202.432 91.3922 203.226L90.6933 205.393L90.0406 209.636L65.7274 246.187L56.4264 236.397L71.4385 202.13L67.3592 193.318L57.895 162.641L51.3679 218.774L52.6733 267.074H40.1807L32.4395 213.226L24.2808 137.512L28.5246 128.701H83.3504Z" fill="#2F2E41"/>
<path d="M26.3153 144.402L26.2263 144.277C21.4712 137.62 28.6228 121.623 29.7015 119.304C28.4206 118.888 27.3235 118.042 26.5969 116.908C25.8702 115.774 25.5591 114.424 25.7164 113.086L26.1814 109.134L26.6661 105.257L23.1938 101.784L23.184 101.698L21.1858 84.2132L18.2804 72.6001C17.1857 68.21 17.279 63.6076 18.5508 59.2654C19.8225 54.9232 22.2268 50.9977 25.517 47.8917L32.2327 46.8254L40.3944 38.9614H53.5562L58.069 43.2731C66.4935 44.7506 67.9408 44.2682 75.1773 52.952L71.8891 79.9501L71.0688 83.6642L71.0712 88.7018L73.1567 91.0195C73.9079 91.8543 74.4538 92.8531 74.7508 93.9362C75.0478 95.0193 75.0878 96.1568 74.8675 97.2581L74.5932 98.6293C76.7441 99.551 78.7965 115.932 79.2868 118.22L80.0193 121.638C80.6459 122.465 84.7822 127.98 84.7822 129.488C84.7822 129.714 84.6151 129.933 84.2565 130.176C81.4377 132.084 70.1996 145.624 63.3041 142.865C55.959 139.928 26.7612 144.334 26.4671 144.379L26.3153 144.402Z" fill="#3F3D56"/>
<path d="M24.5469 113.008C24.5469 113.008 27.9269 93.906 24.5218 86.7222L11.0137 87.687L13.0694 114.938L24.878 145.195C24.6978 146.127 24.7674 147.09 25.0798 147.987C25.3922 148.884 25.9363 149.682 26.6569 150.3C27.3774 150.918 28.2487 151.335 29.1823 151.508C30.116 151.68 31.0787 151.603 31.9727 151.283C32.8668 150.964 33.6603 150.413 34.2729 149.688C34.8854 148.962 35.2951 148.088 35.4603 147.153C35.6255 146.218 35.5404 145.256 35.2135 144.364C34.8867 143.473 34.3299 142.684 33.5995 142.077L24.5469 113.008Z" fill="#FFB6B6"/>
<path d="M11.0138 76.5908L11.8498 67.4868C12.1644 64.0603 13.1534 60.7299 14.7598 57.6871C16.3663 54.6442 18.5585 51.949 21.2103 49.7565C22.858 48.4043 24.851 47.5398 26.9642 47.2609C29.0774 46.9819 31.2265 47.2996 33.1686 48.1779C35.7932 49.3863 37.8611 51.5462 38.9542 54.221C40.0472 56.8957 40.0838 59.8857 39.0565 62.5864C35.9345 70.7745 37.0618 79.4336 30.9741 80.4893L31.6355 83.6359L25.6498 103.17L8.60156 101.195L11.0138 76.5908Z" fill="#3F3D56"/>
<path d="M100.928 103.954C100.928 103.954 91.0338 87.2686 83.7676 84.043L74.1562 93.5835L93.4858 112.902L122.169 128.139C122.641 128.964 123.322 129.649 124.143 130.125C124.965 130.6 125.898 130.851 126.847 130.85C127.797 130.848 128.729 130.596 129.549 130.118C130.37 129.64 131.049 128.954 131.518 128.128C131.988 127.303 132.23 126.368 132.222 125.419C132.213 124.469 131.953 123.539 131.469 122.723C130.984 121.906 130.292 121.232 129.463 120.77C128.634 120.307 127.697 120.072 126.748 120.088L100.928 103.954Z" fill="#FFB6B6"/>
<path d="M66.92 85.1717L61.6167 77.7246C59.6208 74.9218 58.1987 71.752 57.4322 68.3976C56.6658 65.0432 56.57 61.5704 57.1506 58.1788C57.5179 56.0792 58.4651 54.1242 59.8852 52.5346C61.3053 50.9451 63.1417 49.7844 65.1869 49.1838C67.9647 48.3882 70.9409 48.6772 73.5138 49.9921C76.0867 51.3071 78.0643 53.55 79.0468 56.2673C82.0196 64.5107 92.863 78.059 88.9362 82.8293L91.4897 84.7835L95.3485 95.7768L81.1363 105.397L66.92 85.1717Z" fill="#3F3D56"/>
<path d="M46.0873 35.1623C54.1601 35.1623 60.7043 28.6181 60.7043 20.5453C60.7043 12.4725 54.1601 5.92822 46.0873 5.92822C38.0145 5.92822 31.4702 12.4725 31.4702 20.5453C31.4702 28.6181 38.0145 35.1623 46.0873 35.1623Z" fill="#FFB6B6"/>
<path d="M35.4793 30.8478C35.3517 30.7359 35.2313 30.6165 35.1066 30.5015C35.1021 30.5133 35.1014 30.5253 35.0967 30.5371L35.4793 30.8478Z" fill="#2F2E41"/>
<path d="M58.0659 5.10941C57.3397 3.9403 56.3337 2.97042 55.1389 2.28731C54.3222 1.89121 53.4641 1.58715 52.5802 1.38073L50.267 0.749572C49.0817 0.382814 47.8623 0.137279 46.6274 0.0167514C44.9127 -0.0678393 43.2077 0.320417 41.6986 1.1391C40.1895 1.95779 38.9345 3.17543 38.0705 4.65902C37.3716 5.89866 36.811 7.4434 35.4621 7.89694C34.3745 8.26265 33.1878 7.7468 32.0447 7.84687C31.3749 7.94394 30.7393 8.20472 30.1944 8.60613C29.6494 9.00753 29.2119 9.53715 28.9206 10.1481C28.3509 11.3775 28.0705 12.721 28.101 14.0757C28.0561 17.1511 28.6563 20.2019 29.863 23.0311C31.0696 25.8603 32.8559 28.4052 35.1067 30.5015C35.4839 29.5071 34.8625 28.4335 34.3713 27.4822C33.8743 26.5196 33.5672 25.1777 34.3996 24.4844C35.3259 23.713 36.8099 24.4611 37.9054 23.958C38.2558 23.7567 38.551 23.4717 38.7645 23.1286C38.978 22.7854 39.1032 22.3947 39.1289 21.9913C39.2349 21.1921 39.1242 20.3796 39.1744 19.5749C39.2241 18.7773 39.4313 17.9974 39.7841 17.2802C40.137 16.5631 40.6283 15.923 41.2299 15.3968C41.8315 14.8707 42.5314 14.4689 43.2891 14.2147C44.0468 13.9606 44.8474 13.859 45.6446 13.916C48.138 14.0941 50.5578 15.7979 52.9573 15.097C54.0837 14.7679 55.0443 13.9302 56.2093 13.7893C57.4994 13.6332 58.713 14.3613 59.8085 15.0604C60.2065 13.3702 60.2573 11.6167 59.9578 9.90621C59.6583 8.19573 59.0146 6.56385 58.0659 5.10941Z" fill="#2F2E41"/>
<path d="M108.74 275.079L105.021 269.101L104.278 272.517C104.147 273.115 104.017 273.723 103.897 274.326C102.84 273.424 101.716 272.589 100.616 271.789C97.2391 269.338 93.8636 266.884 90.4897 264.427L91.5462 270.554C92.1976 274.326 92.8779 278.176 94.4891 281.625C94.6677 282.016 94.8606 282.402 95.0681 282.779H110.767C110.893 282.429 110.98 282.067 111.027 281.698C111.031 281.674 111.033 281.65 111.032 281.625C111.278 279.286 109.985 277.081 108.74 275.079Z" fill="#F0F0F0"/>
<path d="M380.872 268.623L374.125 257.781L372.777 263.977C372.541 265.062 372.305 266.164 372.086 267.258C370.17 265.622 368.131 264.108 366.136 262.655C360.01 258.21 353.887 253.759 347.768 249.302L349.684 260.415C350.865 267.258 352.099 274.241 355.022 280.498C355.346 281.207 355.696 281.907 356.072 282.59H384.547C384.776 281.956 384.935 281.298 385.02 280.629C385.027 280.586 385.03 280.542 385.028 280.498C385.475 276.254 383.129 272.255 380.872 268.623Z" fill="#F0F0F0"/>
<path d="M399.425 283.366L0.574228 283.514C0.42217 283.514 0.276493 283.453 0.169127 283.346C0.0617604 283.238 0.00146484 283.092 0.00146484 282.94C0.00146484 282.788 0.0617604 282.642 0.169127 282.534C0.276493 282.427 0.42217 282.366 0.574228 282.366L399.425 282.217C399.577 282.218 399.723 282.278 399.831 282.386C399.938 282.494 399.998 282.64 399.998 282.792C399.998 282.944 399.938 283.09 399.831 283.197C399.723 283.305 399.577 283.366 399.425 283.366Z" fill="#CACACA"/>
<path d="M125.142 114.963V253.432C125.143 255.197 125.845 256.889 127.093 258.137C128.341 259.384 130.033 260.086 131.797 260.087H336.995C338.76 260.086 340.452 259.384 341.699 258.137C342.947 256.889 343.649 255.197 343.65 253.432V114.963C343.646 113.2 342.943 111.51 341.696 110.264C340.448 109.018 338.758 108.317 336.995 108.315H131.797C130.034 108.317 128.344 109.018 127.096 110.264C125.849 111.51 125.146 113.2 125.142 114.963Z" fill="#3F3D56"/>
<path d="M129.956 116.685V251.724C129.958 252.667 130.333 253.57 131 254.237C131.666 254.904 132.57 255.279 133.513 255.281H335.287C336.23 255.279 337.134 254.904 337.8 254.237C338.467 253.57 338.842 252.667 338.844 251.724V116.685C338.844 115.741 338.469 114.836 337.802 114.168C337.136 113.5 336.231 113.123 335.287 113.121H133.513C132.569 113.123 131.664 113.5 130.997 114.168C130.331 114.836 129.956 115.741 129.956 116.685Z" fill="white"/>
<path d="M120.85 280.438C121.226 280.909 121.704 281.289 122.248 281.549C122.792 281.809 123.388 281.943 123.99 281.94H343.709C344.31 281.939 344.903 281.805 345.445 281.546C345.988 281.287 346.466 280.91 346.844 280.444C347.223 279.977 347.492 279.432 347.634 278.848C347.775 278.264 347.784 277.656 347.661 277.068L344.25 260.867C344.109 260.206 343.805 259.591 343.365 259.078C342.925 258.565 342.364 258.171 341.733 257.93C341.276 257.751 340.789 257.659 340.298 257.659H127.388C126.897 257.659 126.41 257.751 125.953 257.93C125.322 258.171 124.761 258.565 124.321 259.078C123.881 259.591 123.577 260.206 123.436 260.867L120.025 277.068C119.903 277.655 119.915 278.263 120.057 278.846C120.2 279.429 120.471 279.973 120.85 280.438Z" fill="#2F2E41"/>
<path d="M332.206 264.637H338.502C338.632 264.637 338.738 264.532 338.738 264.402V260.812C338.738 260.682 338.632 260.577 338.502 260.577H332.206C332.076 260.577 331.971 260.682 331.971 260.812V264.402C331.971 264.532 332.076 264.637 332.206 264.637Z" fill="#3F3D56"/>
<path d="M318.672 264.637H324.968C325.098 264.637 325.204 264.532 325.204 264.402V260.812C325.204 260.682 325.098 260.577 324.968 260.577H318.672C318.542 260.577 318.436 260.682 318.436 260.812V264.402C318.436 264.532 318.542 264.637 318.672 264.637Z" fill="#3F3D56"/>
<path d="M305.137 264.637H311.433C311.563 264.637 311.669 264.532 311.669 264.402V260.812C311.669 260.682 311.563 260.577 311.433 260.577H305.137C305.007 260.577 304.902 260.682 304.902 260.812V264.402C304.902 264.532 305.007 264.637 305.137 264.637Z" fill="#3F3D56"/>
<path d="M291.603 264.637H297.899C298.029 264.637 298.135 264.532 298.135 264.402V260.812C298.135 260.682 298.029 260.577 297.899 260.577H291.603C291.473 260.577 291.368 260.682 291.368 260.812V264.402C291.368 264.532 291.473 264.637 291.603 264.637Z" fill="#3F3D56"/>
<path d="M278.068 264.637H284.365C284.495 264.637 284.6 264.532 284.6 264.402V260.812C284.6 260.682 284.495 260.577 284.365 260.577H278.068C277.938 260.577 277.833 260.682 277.833 260.812V264.402C277.833 264.532 277.938 264.637 278.068 264.637Z" fill="#3F3D56"/>
<path d="M264.534 264.637H270.83C270.96 264.637 271.065 264.532 271.065 264.402V260.812C271.065 260.682 270.96 260.577 270.83 260.577H264.534C264.404 260.577 264.298 260.682 264.298 260.812V264.402C264.298 264.532 264.404 264.637 264.534 264.637Z" fill="#3F3D56"/>
<path d="M251 264.637H257.296C257.426 264.637 257.531 264.532 257.531 264.402V260.812C257.531 260.682 257.426 260.577 257.296 260.577H251C250.869 260.577 250.764 260.682 250.764 260.812V264.402C250.764 264.532 250.869 264.637 251 264.637Z" fill="#3F3D56"/>
<path d="M237.465 264.637H243.761C243.891 264.637 243.997 264.532 243.997 264.402V260.812C243.997 260.682 243.891 260.577 243.761 260.577H237.465C237.335 260.577 237.229 260.682 237.229 260.812V264.402C237.229 264.532 237.335 264.637 237.465 264.637Z" fill="#3F3D56"/>
<path d="M223.93 264.637H230.226C230.356 264.637 230.462 264.532 230.462 264.402V260.812C230.462 260.682 230.356 260.577 230.226 260.577H223.93C223.8 260.577 223.695 260.682 223.695 260.812V264.402C223.695 264.532 223.8 264.637 223.93 264.637Z" fill="#3F3D56"/>
<path d="M210.396 264.637H216.692C216.822 264.637 216.928 264.532 216.928 264.402V260.812C216.928 260.682 216.822 260.577 216.692 260.577H210.396C210.266 260.577 210.161 260.682 210.161 260.812V264.402C210.161 264.532 210.266 264.637 210.396 264.637Z" fill="#3F3D56"/>
<path d="M196.861 264.637H203.158C203.288 264.637 203.393 264.532 203.393 264.402V260.812C203.393 260.682 203.288 260.577 203.158 260.577H196.861C196.731 260.577 196.626 260.682 196.626 260.812V264.402C196.626 264.532 196.731 264.637 196.861 264.637Z" fill="#3F3D56"/>
<path d="M183.327 264.637H189.623C189.753 264.637 189.859 264.532 189.859 264.402V260.812C189.859 260.682 189.753 260.577 189.623 260.577H183.327C183.197 260.577 183.092 260.682 183.092 260.812V264.402C183.092 264.532 183.197 264.637 183.327 264.637Z" fill="#3F3D56"/>
<path d="M169.792 264.637H176.089C176.219 264.637 176.324 264.532 176.324 264.402V260.812C176.324 260.682 176.219 260.577 176.089 260.577H169.792C169.662 260.577 169.557 260.682 169.557 260.812V264.402C169.557 264.532 169.662 264.637 169.792 264.637Z" fill="#3F3D56"/>
<path d="M156.258 264.637H162.554C162.684 264.637 162.79 264.532 162.79 264.402V260.812C162.79 260.682 162.684 260.577 162.554 260.577H156.258C156.128 260.577 156.022 260.682 156.022 260.812V264.402C156.022 264.532 156.128 264.637 156.258 264.637Z" fill="#3F3D56"/>
<path d="M142.724 264.637H149.02C149.15 264.637 149.255 264.532 149.255 264.402V260.812C149.255 260.682 149.15 260.577 149.02 260.577H142.724C142.594 260.577 142.488 260.682 142.488 260.812V264.402C142.488 264.532 142.594 264.637 142.724 264.637Z" fill="#3F3D56"/>
<path d="M129.189 264.637H135.485C135.615 264.637 135.721 264.532 135.721 264.402V260.812C135.721 260.682 135.615 260.577 135.485 260.577H129.189C129.059 260.577 128.953 260.682 128.953 260.812V264.402C128.953 264.532 129.059 264.637 129.189 264.637Z" fill="#3F3D56"/>
<path d="M332.366 271.404H338.662C338.792 271.404 338.898 271.299 338.898 271.169V267.579C338.898 267.449 338.792 267.344 338.662 267.344H332.366C332.236 267.344 332.131 267.449 332.131 267.579V271.169C332.131 271.299 332.236 271.404 332.366 271.404Z" fill="#3F3D56"/>
<path d="M318.832 271.404H325.128C325.258 271.404 325.363 271.299 325.363 271.169V267.579C325.363 267.449 325.258 267.344 325.128 267.344H318.832C318.701 267.344 318.596 267.449 318.596 267.579V271.169C318.596 271.299 318.701 271.404 318.832 271.404Z" fill="#3F3D56"/>
<path d="M305.297 271.404H311.594C311.724 271.404 311.829 271.299 311.829 271.169V267.579C311.829 267.449 311.724 267.344 311.594 267.344H305.297C305.167 267.344 305.062 267.449 305.062 267.579V271.169C305.062 271.299 305.167 271.404 305.297 271.404Z" fill="#3F3D56"/>
<path d="M291.763 271.404H298.059C298.189 271.404 298.294 271.299 298.294 271.169V267.579C298.294 267.449 298.189 267.344 298.059 267.344H291.763C291.633 267.344 291.527 267.449 291.527 267.579V271.169C291.527 271.299 291.633 271.404 291.763 271.404Z" fill="#3F3D56"/>
<path d="M278.228 271.404H284.524C284.654 271.404 284.76 271.299 284.76 271.169V267.579C284.76 267.449 284.654 267.344 284.524 267.344H278.228C278.098 267.344 277.993 267.449 277.993 267.579V271.169C277.993 271.299 278.098 271.404 278.228 271.404Z" fill="#3F3D56"/>
<path d="M264.694 271.404H270.99C271.12 271.404 271.226 271.299 271.226 271.169V267.579C271.226 267.449 271.12 267.344 270.99 267.344H264.694C264.564 267.344 264.458 267.449 264.458 267.579V271.169C264.458 271.299 264.564 271.404 264.694 271.404Z" fill="#3F3D56"/>
<path d="M251.159 271.404H257.455C257.585 271.404 257.691 271.299 257.691 271.169V267.579C257.691 267.449 257.585 267.344 257.455 267.344H251.159C251.029 267.344 250.924 267.449 250.924 267.579V271.169C250.924 271.299 251.029 271.404 251.159 271.404Z" fill="#3F3D56"/>
<path d="M237.625 271.404H243.921C244.051 271.404 244.157 271.299 244.157 271.169V267.579C244.157 267.449 244.051 267.344 243.921 267.344H237.625C237.495 267.344 237.39 267.449 237.39 267.579V271.169C237.39 271.299 237.495 271.404 237.625 271.404Z" fill="#3F3D56"/>
<path d="M224.09 271.404H230.387C230.517 271.404 230.622 271.299 230.622 271.169V267.579C230.622 267.449 230.517 267.344 230.387 267.344H224.09C223.96 267.344 223.855 267.449 223.855 267.579V271.169C223.855 271.299 223.96 271.404 224.09 271.404Z" fill="#3F3D56"/>
<path d="M210.556 271.404H216.852C216.982 271.404 217.087 271.299 217.087 271.169V267.579C217.087 267.449 216.982 267.344 216.852 267.344H210.556C210.426 267.344 210.32 267.449 210.32 267.579V271.169C210.32 271.299 210.426 271.404 210.556 271.404Z" fill="#3F3D56"/>
<path d="M197.021 271.404H203.318C203.448 271.404 203.553 271.299 203.553 271.169V267.579C203.553 267.449 203.448 267.344 203.318 267.344H197.021C196.891 267.344 196.786 267.449 196.786 267.579V271.169C196.786 271.299 196.891 271.404 197.021 271.404Z" fill="#3F3D56"/>
<path d="M183.487 271.404H189.783C189.913 271.404 190.019 271.299 190.019 271.169V267.579C190.019 267.449 189.913 267.344 189.783 267.344H183.487C183.357 267.344 183.251 267.449 183.251 267.579V271.169C183.251 271.299 183.357 271.404 183.487 271.404Z" fill="#3F3D56"/>
<path d="M169.953 271.404H176.249C176.379 271.404 176.484 271.299 176.484 271.169V267.579C176.484 267.449 176.379 267.344 176.249 267.344H169.953C169.823 267.344 169.717 267.449 169.717 267.579V271.169C169.717 271.299 169.823 271.404 169.953 271.404Z" fill="#3F3D56"/>
<path d="M156.418 271.404H162.714C162.844 271.404 162.95 271.299 162.95 271.169V267.579C162.95 267.449 162.844 267.344 162.714 267.344H156.418C156.288 267.344 156.182 267.449 156.182 267.579V271.169C156.182 271.299 156.288 271.404 156.418 271.404Z" fill="#3F3D56"/>
<path d="M142.883 271.404H149.18C149.31 271.404 149.415 271.299 149.415 271.169V267.579C149.415 267.449 149.31 267.344 149.18 267.344H142.883C142.753 267.344 142.648 267.449 142.648 267.579V271.169C142.648 271.299 142.753 271.404 142.883 271.404Z" fill="#3F3D56"/>
<path d="M129.349 271.404H135.645C135.775 271.404 135.881 271.299 135.881 271.169V267.579C135.881 267.449 135.775 267.344 135.645 267.344H129.349C129.219 267.344 129.114 267.449 129.114 267.579V271.169C129.114 271.299 129.219 271.404 129.349 271.404Z" fill="#3F3D56"/>
<path d="M205.075 279.525H258.742C258.872 279.525 258.977 279.419 258.977 279.289V275.7C258.977 275.57 258.872 275.465 258.742 275.465H205.075C204.945 275.465 204.839 275.57 204.839 275.7V279.289C204.839 279.419 204.945 279.525 205.075 279.525Z" fill="#3F3D56"/>
<path d="M280.366 194.922C280.343 206.322 276.058 217.3 268.351 225.7C260.644 234.1 250.074 239.313 238.719 240.314C227.363 241.316 216.044 238.033 206.986 231.112C197.928 224.191 191.787 214.132 189.77 202.912C187.752 191.692 190.005 180.124 196.085 170.481C202.165 160.838 211.632 153.818 222.625 150.802C233.618 147.785 245.342 148.99 255.492 154.179C265.642 159.368 273.483 168.166 277.475 178.844C277.575 179.112 277.672 179.38 277.766 179.651V179.654C278.188 180.844 278.559 182.056 278.88 183.29C279.87 187.088 280.369 190.997 280.366 194.922Z" fill="#3F3D56"/>
<path d="M229.37 163.909C227.305 162.792 225.011 162.162 222.665 162.066C220.318 161.97 217.981 162.411 215.831 163.355C213.938 164.179 211.945 165.657 211.313 168.326C213.867 166.819 217.173 169.2 217.831 173.021L217.677 173.063C217.33 175.709 218.105 178.591 219.605 180.232C219.717 179.491 219.992 178.785 220.411 178.164C220.829 177.543 221.381 177.023 222.025 176.642C223.128 175.918 224.347 175.391 225.188 174.146C226.186 172.669 226.439 170.511 226.835 168.543C227.232 166.574 227.983 164.458 229.37 163.909Z" fill="#6C63FF"/>
<path d="M215.073 186.429C214.366 187.491 213.421 188.158 212.573 188.988C211.595 189.878 210.953 191.078 210.755 192.386C210.648 193.311 210.814 194.251 210.791 195.185C210.768 196.12 210.456 197.172 209.821 197.404C208.817 197.767 208.051 195.903 207.019 195.773C206.199 195.671 205.461 196.96 205.699 198.079C205.936 199.197 207.052 199.693 207.693 198.962C208.273 199.935 207.864 201.7 206.994 201.999C206.902 202.611 206.81 203.222 206.72 203.835C204.519 202.295 202.295 200.729 200.423 198.474C198.341 195.988 197.05 192.936 196.715 189.71C196.473 187.118 196.833 184.153 195.643 182.159C194.69 180.563 193.056 180.211 191.585 180.31C191.317 180.328 191.046 180.359 190.778 180.392C191.645 177.786 192.747 175.265 194.069 172.859C194.369 172.73 194.647 172.557 194.894 172.345C196.263 171.183 196.871 168.831 197.982 167.205C198.053 167.1 198.127 166.998 198.204 166.898C199.34 165.415 200.862 164.651 202.333 163.941C205.589 162.36 208.94 160.759 212.377 160.979L211.399 161.073C210.257 164.27 209.115 167.468 207.972 170.665C207.798 171.155 207.623 171.646 207.446 172.138C206.797 173.957 206.128 175.892 206.228 177.928C206.286 179.133 206.705 180.42 207.502 180.834C208.245 181.217 209.057 180.747 209.775 180.282C210.079 180.088 210.38 179.894 210.684 179.697C211.774 178.995 212.982 178.275 214.134 178.745C215.188 179.174 215.967 180.606 216.115 182.151C216.251 183.653 215.885 185.158 215.073 186.429Z" fill="#6C63FF"/>
<path d="M221.559 208.257C218.374 206.296 215.189 204.335 212.004 202.374L212.058 202.235C210.078 202.989 209.256 206.509 209.584 209.387C209.911 212.266 211.02 214.839 211.581 217.643C212.337 221.481 212.051 225.452 210.755 229.142C214.942 224.443 218.648 219.337 221.817 213.898C222.26 213.213 222.597 212.465 222.818 211.68C223.052 210.842 222.968 209.948 222.584 209.169C222.323 208.784 221.971 208.471 221.559 208.257Z" fill="#6C63FF"/>
<path d="M208.99 172.583C208.616 173.386 208.558 174.3 208.828 175.144C209.143 175.823 209.713 176.351 210.414 176.613L212.174 177.485C212.76 177.775 213.391 178.068 213.987 177.829C214.707 177.542 215.206 176.413 215.077 175.365C214.94 174.251 214.237 173.484 213.587 172.831C212.678 171.917 211.768 171.003 210.859 170.089L210.346 170.717C209.792 171.258 209.333 171.889 208.99 172.583Z" fill="#6C63FF"/>
<path d="M270.932 184.501C271.724 184.687 272.516 184.873 273.307 185.06C273.169 187.733 271.844 190.208 270.067 191.104C269.326 191.477 268.501 191.615 267.888 192.312C267.334 192.946 267.053 193.931 266.795 194.874C266.343 196.518 265.891 198.163 265.439 199.807C264.954 201.579 264.331 203.548 263.07 204.187C261.987 204.736 260.748 204.064 259.916 202.938C259.083 201.812 258.575 200.298 258.082 198.822C258.113 200.43 257.365 202.009 256.305 202.568C255.243 203.127 253.95 202.621 253.241 201.373C252.73 200.476 252.518 199.294 252.017 198.385C251.517 197.476 250.467 196.955 249.921 197.808C249.561 198.375 249.607 199.243 249.428 199.963C249.338 200.441 249.101 200.879 248.751 201.217C248.4 201.554 247.953 201.774 247.472 201.845C247.029 201.835 246.593 201.735 246.191 201.551C245.788 201.367 245.427 201.103 245.13 200.775C243.566 199.175 242.548 197.122 242.221 194.909C242 193.848 242.028 192.75 242.303 191.702C242.617 190.709 243.376 189.942 244.129 190.131C244.624 189.084 243.646 187.695 242.765 187.818C241.882 187.94 241.19 188.888 240.465 189.616C239.742 190.343 238.731 190.872 238.003 190.149C238.011 190.287 237.991 190.424 237.944 190.554C237.896 190.683 237.823 190.801 237.728 190.901C237.632 191 237.518 191.079 237.39 191.132C237.263 191.185 237.127 191.211 236.989 191.209C236.505 191.07 236.055 190.832 235.669 190.509C234.001 189.47 231.884 190.159 230.699 192.126C231.44 188.975 232.525 185.359 234.8 184.618C235.73 184.314 236.744 184.564 237.622 184.038C239.177 183.106 239.492 179.585 238.148 178.132C238.319 179.506 238.286 181.109 237.561 182.049C236.836 182.989 235.314 182.376 235.406 180.987C235.385 181.182 235.303 181.366 235.172 181.512C235.04 181.658 234.866 181.758 234.673 181.799C234.481 181.84 234.281 181.819 234.102 181.739C233.922 181.659 233.773 181.525 233.674 181.354C233.192 180.619 233.232 179.416 233.575 178.538C233.927 177.742 234.433 177.024 235.063 176.423C236.276 175.123 237.507 173.808 238.912 172.991C240.319 172.174 241.943 171.898 243.353 172.71C244.096 173.139 244.75 173.854 245.508 174.232C245.69 174.345 245.892 174.42 246.103 174.453C246.315 174.486 246.53 174.476 246.738 174.424C246.945 174.373 247.14 174.279 247.311 174.151C247.482 174.022 247.625 173.861 247.732 173.675C248.297 172.685 248.031 171.214 248.24 169.975C248.616 167.787 250.804 166.763 252.017 168.208C251.111 167.976 250.174 169.048 250.061 170.348C249.946 171.648 250.603 172.96 251.481 173.354C252.957 174.007 254.402 172.363 255.518 170.841C256.683 169.247 257.849 167.655 259.017 166.063C259.203 165.792 259.413 165.537 259.643 165.302C260.008 164.945 260.496 164.741 261.007 164.731C261.517 164.72 262.013 164.905 262.393 165.246C263.573 166.209 264.127 168.183 265.095 169.541C266.499 171.515 268.601 171.995 270.557 172.378C272.015 172.662 273.474 172.947 274.934 173.234C275.907 175.044 276.756 176.919 277.475 178.844C274.798 180.065 272.527 182.028 270.932 184.501Z" fill="#6C63FF"/>
<path d="M278.88 183.29C278.581 184.172 278.417 185.094 278.395 186.025C277.143 184.498 276.944 181.635 277.766 179.654C278.188 180.844 278.559 182.056 278.88 183.29Z" fill="#6C63FF"/>
<path d="M275.647 215.226C274.553 217.448 273.28 219.577 271.842 221.593C270.923 221.199 269.934 221.902 269.074 222.56C268.175 223.25 267.095 223.922 266.173 223.293C265.23 222.65 264.927 220.849 265.225 219.422C265.569 218.105 266.169 216.869 266.992 215.786C267.759 214.641 268.578 213.454 269.643 213.01C270.711 212.565 272.082 213.194 272.393 214.71L273.149 214.685C272.725 214.103 272.948 212.897 273.517 212.685C274.173 212.438 274.743 213.339 275.131 214.136C275.305 214.496 275.481 214.859 275.647 215.226Z" fill="#6C63FF"/>
<path d="M246.697 204.44C245.072 204.542 243.785 202.542 242.93 200.574C242.075 198.607 241.294 196.356 239.828 195.355C238.991 194.783 238.036 194.704 237.127 194.427C236.612 194.297 236.135 194.045 235.736 193.694C235.337 193.343 235.027 192.902 234.833 192.407L233.802 191.991C232.361 192.711 231.04 193.653 229.889 194.781C228.574 196.178 227.755 197.969 227.558 199.878C227.361 201.941 228.088 204.242 229.446 205.016C230.52 205.629 231.769 205.243 232.857 205.803C234.215 206.504 235.022 208.538 235.327 210.547C235.632 212.556 235.555 214.644 235.773 216.675C235.992 218.707 236.594 220.821 237.839 221.862C239.398 223.165 241.686 222.082 242.385 219.711C242.728 218.547 242.716 217.235 242.973 216.027C243.425 213.9 244.644 212.323 245.611 210.578C246.579 208.834 247.34 206.464 246.697 204.44Z" fill="#6C63FF"/>
<path d="M230.642 183.543C230.794 183.682 230.935 183.832 231.065 183.992C231.2 184.224 231.269 184.489 231.264 184.757C231.259 185.026 231.182 185.288 231.039 185.516C231.235 185.505 231.426 185.453 231.601 185.364C231.776 185.275 231.93 185.151 232.054 185C232.351 184.662 232.612 184.295 232.833 183.903C232.937 183.769 233.011 183.615 233.05 183.45C233.09 183.285 233.094 183.113 233.062 182.947C232.986 182.728 232.804 182.634 232.677 182.47C232.5 182.147 232.38 181.798 232.321 181.435C232.25 181.096 232.086 180.782 231.847 180.531C231.609 180.279 231.304 180.099 230.969 180.011L231.05 180.026C230.912 180.109 230.802 180.232 230.738 180.38C230.673 180.527 230.656 180.691 230.689 180.849C230.738 181.168 230.943 181.432 230.922 181.757C230.893 182.225 230.426 182.444 230.397 182.911C230.393 183.146 230.481 183.373 230.642 183.543Z" fill="#6C63FF"/>
<path d="M227.858 175.601L227.866 175.599C227.916 175.554 227.962 175.504 228.004 175.452L227.858 175.601Z" fill="#6C63FF"/>
<path d="M228.346 177.794C228.541 177.623 228.685 177.402 228.763 177.154C228.841 176.906 228.849 176.642 228.787 176.39C228.669 175.858 228.251 175.501 227.866 175.599C227.754 175.713 227.615 175.796 227.462 175.841C227.31 175.886 227.148 175.891 226.993 175.856C226.754 175.795 226.493 175.637 226.286 175.816C226.168 175.95 226.085 176.112 226.046 176.286C225.969 176.521 225.893 176.756 225.816 176.99C225.78 177.075 225.77 177.168 225.789 177.257C225.804 177.293 225.827 177.325 225.858 177.349C225.888 177.373 225.924 177.389 225.962 177.395C226.421 177.53 226.88 177.666 227.339 177.801C227.497 177.874 227.669 177.911 227.843 177.91C228.017 177.909 228.189 177.869 228.346 177.794Z" fill="#6C63FF"/>
<path d="M262.984 208.081C262.772 207.734 262.56 207.386 262.348 207.039C262.139 206.637 261.855 206.279 261.509 205.986C261.433 205.923 261.346 205.875 261.251 205.846C261.156 205.817 261.057 205.807 260.958 205.817C260.86 205.827 260.764 205.856 260.677 205.903C260.59 205.951 260.513 206.015 260.452 206.092L260.477 206.291C261.045 206.9 261.432 207.655 261.595 208.471C261.643 208.826 261.627 209.193 261.669 209.55C261.673 209.715 261.71 209.878 261.778 210.029C261.845 210.18 261.942 210.316 262.062 210.43C262.396 210.653 262.788 210.324 263.026 209.922C263.238 209.593 263.334 209.201 263.296 208.81C263.243 208.548 263.137 208.3 262.984 208.081Z" fill="#6C63FF"/>
<path d="M266.311 208.533C266.352 208.207 266.325 207.878 266.234 207.563C266.218 207.138 266.331 206.717 266.557 206.356C266.782 206.016 266.952 205.643 267.062 205.25C267.108 205.071 267.1 204.883 267.038 204.708C266.968 204.551 266.798 204.479 266.7 204.604L266.909 204.738C266.627 204.688 266.337 204.702 266.062 204.779C265.904 204.839 265.764 204.936 265.652 205.062C265.541 205.188 265.461 205.339 265.42 205.503C265.385 205.757 265.329 206.009 265.251 206.254C265.127 206.51 264.886 206.595 264.734 206.819C264.631 207.018 264.579 207.24 264.583 207.464C264.586 207.689 264.646 207.909 264.756 208.104C264.946 208.424 265.248 208.662 265.604 208.771C265.859 208.863 266.195 208.868 266.311 208.533Z" fill="#6C63FF"/>
<path d="M272.236 210.32C272.328 210.56 272.452 210.787 272.603 210.994C272.887 211.28 273.273 211.104 273.617 211.035C273.929 210.986 274.249 211.022 274.542 211.139C274.836 211.257 275.092 211.452 275.283 211.703C275.15 211.038 274.859 210.414 274.434 209.884C274.009 209.355 273.464 208.935 272.843 208.659C272.037 208.38 271.187 208.247 270.334 208.267L270.188 208.304C270.56 209.385 271.726 209.361 272.236 210.32Z" fill="#6C63FF"/>
<path d="M247.141 212.531L247.143 212.536L247.186 212.454L247.141 212.531Z" fill="#6C63FF"/>
<path d="M246.242 214.271C246.046 214.627 245.878 214.998 245.738 215.379C245.553 215.997 245.431 216.632 245.373 217.275C245.327 217.64 245.313 218.106 245.542 218.284C245.607 218.328 245.687 218.346 245.765 218.336C245.843 218.325 245.915 218.286 245.966 218.227C246.093 218.092 246.198 217.938 246.274 217.769C246.724 216.994 247.073 216.165 247.314 215.302C247.564 214.387 247.504 213.414 247.143 212.536C246.843 213.115 246.543 213.693 246.242 214.271Z" fill="#6C63FF"/>
<path d="M237.571 167.918C237.714 168.057 237.894 168.152 238.09 168.19C238.286 168.229 238.489 168.209 238.674 168.133C239.057 167.966 239.408 167.734 239.712 167.448C239.963 167.261 240.177 167.028 240.341 166.761C240.431 166.602 240.489 166.426 240.511 166.244C240.533 166.062 240.519 165.878 240.469 165.701C240.399 165.532 240.287 165.384 240.143 165.27C240 165.157 239.829 165.081 239.649 165.052C239.139 164.901 238.63 164.75 238.121 164.599L238.489 164.267C238.11 164.063 237.691 164.441 237.454 164.908C237.302 165.214 237.196 165.54 237.14 165.876C237.059 166.227 237.056 166.592 237.13 166.944C237.205 167.297 237.355 167.629 237.571 167.918Z" fill="#6C63FF"/>
<path d="M246.562 164.899C246.706 165.057 246.904 165.155 247.117 165.173C247.33 165.19 247.542 165.125 247.709 164.993C247.853 164.884 247.972 164.747 248.06 164.59C248.147 164.432 248.2 164.258 248.216 164.079C248.252 163.678 248.054 163.233 247.771 163.199L247.836 162.824C247.291 162.725 246.62 162.705 246.328 163.367C246.23 163.621 246.199 163.896 246.24 164.164C246.282 164.433 246.392 164.687 246.562 164.899Z" fill="#6C63FF"/>
<path d="M327.828 137.568H140.971C140.843 137.565 140.721 137.512 140.631 137.42C140.542 137.329 140.492 137.206 140.492 137.078C140.492 136.95 140.542 136.827 140.631 136.735C140.721 136.644 140.843 136.591 140.971 136.588H327.828C327.956 136.591 328.078 136.644 328.168 136.735C328.257 136.827 328.308 136.95 328.308 137.078C328.308 137.206 328.257 137.329 328.168 137.42C328.078 137.512 327.956 137.565 327.828 137.568Z" fill="#CACACA"/>
<path d="M151.756 130.71C154.667 130.71 157.026 128.298 157.026 125.322C157.026 122.346 154.667 119.934 151.756 119.934C148.845 119.934 146.485 122.346 146.485 125.322C146.485 128.298 148.845 130.71 151.756 130.71Z" fill="#3F3D56"/>
<path d="M169.964 130.71C172.875 130.71 175.234 128.298 175.234 125.322C175.234 122.346 172.875 119.934 169.964 119.934C167.053 119.934 164.693 122.346 164.693 125.322C164.693 128.298 167.053 130.71 169.964 130.71Z" fill="#3F3D56"/>
<path d="M188.172 130.71C191.083 130.71 193.442 128.298 193.442 125.322C193.442 122.346 191.083 119.934 188.172 119.934C185.261 119.934 182.901 122.346 182.901 125.322C182.901 128.298 185.261 130.71 188.172 130.71Z" fill="#3F3D56"/>
<path d="M316.917 121.269H303.983C303.727 121.274 303.483 121.38 303.303 121.563C303.123 121.746 303.023 121.992 303.023 122.248C303.023 122.505 303.123 122.751 303.303 122.934C303.483 123.117 303.727 123.223 303.983 123.228H316.917C317.173 123.223 317.418 123.117 317.597 122.934C317.777 122.751 317.877 122.505 317.877 122.248C317.877 121.992 317.777 121.746 317.597 121.563C317.418 121.38 317.173 121.274 316.917 121.269Z" fill="#3F3D56"/>
<path d="M316.917 124.945H303.983C303.727 124.95 303.483 125.056 303.303 125.239C303.123 125.422 303.023 125.668 303.023 125.925C303.023 126.181 303.123 126.427 303.303 126.61C303.483 126.793 303.727 126.899 303.983 126.904H316.917C317.173 126.899 317.418 126.793 317.597 126.61C317.777 126.427 317.877 126.181 317.877 125.925C317.877 125.668 317.777 125.422 317.597 125.239C317.418 125.056 317.173 124.95 316.917 124.945Z" fill="#3F3D56"/>
<path d="M316.917 128.617H303.983C303.727 128.622 303.483 128.727 303.303 128.91C303.123 129.093 303.023 129.34 303.023 129.596C303.023 129.852 303.123 130.099 303.303 130.282C303.483 130.465 303.727 130.57 303.983 130.575H316.917C317.173 130.57 317.418 130.465 317.597 130.282C317.777 130.099 317.877 129.852 317.877 129.596C317.877 129.34 317.777 129.093 317.597 128.91C317.418 128.727 317.173 128.622 316.917 128.617Z" fill="#3F3D56"/>
<g opacity="0.35">
<path opacity="0.35" d="M332.779 197.187C335.787 195.876 329.687 195.112 322.768 194.861C315.848 194.61 307.477 194.624 303.055 193.91C298.778 193.22 299.093 191.992 298.733 190.88C298.374 189.768 296.729 188.627 290.056 188.38C281.74 188.072 268.026 189.258 261.748 188.546C255.89 187.881 259.372 185.797 250.83 185.717C245.952 185.672 239.668 186.359 234.24 186.525C230.393 186.692 226.538 186.491 222.729 185.925C220.083 185.491 218.241 184.942 215.263 184.559C207.446 183.554 192.152 183.892 178.502 185.18C164.852 186.468 153.151 188.579 146.552 190.67C139.953 192.761 138.13 194.82 139.667 196.566C140.649 197.681 143.161 198.723 149.253 199.171C160.65 200.009 180.94 198.567 192.716 199.329C199.279 199.754 202.191 200.807 207.95 201.384C214.136 202.003 223.193 202.036 232.092 202.021C250.619 201.99 269.62 201.8 288.996 201.451C297.089 201.305 305.568 201.116 314.18 200.421C322.791 199.726 331.574 198.385 333.391 197.128" fill="white"/>
</g>
</g>
<defs>
<clipPath id="clip0_112_223">
<rect width="400" height="283.514" fill="white"/>
</clipPath>
</defs>
</svg>
