<svg width="35" height="35" viewBox="0 0 35 35" fill="none" xmlns="http://www.w3.org/2000/svg">
<path d="M18.8221 15.7836V15.7295C18.8143 15.745 18.7988 15.7681 18.7832 15.7836H18.8221Z" fill="#2A7AB9"/>
<path d="M32.41 0H2.58222C1.15889 0 0 1.1208 0 2.50442V32.4956C0 33.8792 1.15889 35 2.58222 35H32.41C33.8411 35 35 33.8792 35 32.4956V2.50442C35 1.1208 33.8411 0 32.41 0ZM10.6089 29.3032H5.32V13.496H10.6089V29.3032ZM7.96444 11.3317H7.93333C6.16 11.3317 5.01667 10.1182 5.01667 8.60314C5.01667 7.04947 6.19889 5.87456 8.00333 5.87456C9.81556 5.87456 10.9278 7.0572 10.9589 8.60314C10.9589 10.1182 9.80778 11.3317 7.96444 11.3317ZM29.6722 29.3032H24.3833V20.8392C24.3833 18.7136 23.6211 17.2681 21.7078 17.2681C20.2456 17.2681 19.3744 18.2421 18.9933 19.1928C18.8533 19.5329 18.8222 20.0044 18.8222 20.4759V29.3032H13.5333C13.5333 29.3032 13.6033 14.9801 13.5333 13.496H18.8222V15.7299C19.5222 14.6555 20.7822 13.1173 23.59 13.1173C27.0667 13.1173 29.6722 15.3743 29.6722 20.2363V29.3032Z" fill="#2A7AB9"/>
</svg>
