<svg width="46" height="46" viewBox="0 0 46 46" fill="none" xmlns="http://www.w3.org/2000/svg">
<path d="M22.9999 0.920044C10.8053 0.920044 0.919922 10.8054 0.919922 23C0.919922 35.1946 10.8053 45.08 22.9999 45.08C35.1945 45.08 45.0799 35.1946 45.0799 23C45.0799 10.8054 35.1945 0.920044 22.9999 0.920044ZM17.5949 32.1517H13.1237V17.7629H17.5949V32.1517ZM15.3317 15.9965C13.9195 15.9965 13.0064 14.996 13.0064 13.7586C13.0064 12.4959 13.9471 11.5253 15.3892 11.5253C16.8313 11.5253 17.7145 12.4959 17.7421 13.7586C17.7421 14.996 16.8313 15.9965 15.3317 15.9965ZM33.9249 32.1517H29.4537V24.1776C29.4537 22.3215 28.8051 21.0611 27.1882 21.0611C25.9531 21.0611 25.2194 21.9144 24.8951 22.7355C24.7755 23.0276 24.7456 23.4416 24.7456 23.8533V32.1494H20.2721V22.3514C20.2721 20.5551 20.2146 19.0532 20.1548 17.7606H24.0395L24.2442 19.7593H24.3339C24.9227 18.8209 26.3648 17.4363 28.7775 17.4363C31.7192 17.4363 33.9249 19.4074 33.9249 23.644V32.1517Z" fill="#3F3F3F"/>
</svg>
