<svg width="46" height="46" viewBox="0 0 46 46" fill="none" xmlns="http://www.w3.org/2000/svg">
<path d="M41.4001 16.9579V33.35C41.4001 34.8749 40.7943 36.3375 39.716 37.4158C38.6376 38.4941 37.1751 39.1 35.6501 39.1H10.3501C8.8251 39.1 7.36257 38.4941 6.28423 37.4158C5.2059 36.3375 4.6001 34.8749 4.6001 33.35V16.9579L22.4159 27.4413C22.5929 27.5456 22.7946 27.6007 23.0001 27.6007C23.2056 27.6007 23.4073 27.5456 23.5843 27.4413L41.4001 16.9579ZM35.6501 9.19995C37.0649 9.19973 38.4302 9.72115 39.4847 10.6645C40.5392 11.6078 41.2088 12.9067 41.3656 14.3129L23.0001 25.116L4.6346 14.3129C4.79136 12.9067 5.46104 11.6078 6.51553 10.6645C7.57001 9.72115 8.93526 9.19973 10.3501 9.19995H35.6501Z" fill="#3F3F3F"/>
</svg>
