<svg width="46" height="46" viewBox="0 0 46 46" fill="none" xmlns="http://www.w3.org/2000/svg">
<path d="M23 0C10.2987 0 0 10.2987 0 23C0 35.7013 10.2987 46 23 46C35.7013 46 46 35.7013 46 23C46 10.2987 35.7013 0 23 0ZM36.1429 13.0248L34.0482 15.0321C33.8634 15.1708 33.7761 15.3967 33.8121 15.6174V30.3877C33.7761 30.6136 33.8634 30.8395 34.0482 30.973L36.1018 32.9804V33.427H25.7929V33.0009L27.9132 30.9422C28.1237 30.7317 28.1237 30.6701 28.1237 30.3569V18.4051L22.2196 33.3757H21.4239L14.5547 18.4051V28.442C14.4931 28.8629 14.642 29.2891 14.9397 29.592L17.7018 32.9342V33.3808H9.85714V32.9342L12.6192 29.592C12.7647 29.4416 12.873 29.2593 12.9354 29.0596C12.9978 28.8599 13.0126 28.6484 12.9786 28.442V16.8393C13.0145 16.5158 12.8913 16.2027 12.6449 15.9819L10.1908 13.0248V12.5781H17.8147L23.6982 25.49L28.8783 12.5884H36.1429V13.0248Z" fill="#3F3F3F"/>
</svg>
