<svg width="65" height="423" viewBox="0 0 65 423" fill="none" xmlns="http://www.w3.org/2000/svg">
<line opacity="0.4" x1="33.5" y1="-2.18557e-08" x2="33.5" y2="135" stroke="black"/>
<line opacity="0.4" x1="33.5" y1="257" x2="33.5" y2="423" stroke="black"/>
<path opacity="0.4" d="M30.2109 196.039C30.2109 199.383 29.6484 202.305 28.5234 204.805C27.3984 207.289 25.8047 209.188 23.7422 210.5C21.6797 211.812 19.2734 212.469 16.5234 212.469C13.8359 212.469 11.4531 211.812 9.375 210.5C7.29688 209.172 5.67969 207.289 4.52344 204.852C3.38281 202.398 2.79688 199.562 2.76562 196.344V193.883C2.76562 190.602 3.33594 187.703 4.47656 185.188C5.61719 182.672 7.22656 180.75 9.30469 179.422C11.3984 178.078 13.7891 177.406 16.4766 177.406C19.2109 177.406 21.6172 178.07 23.6953 179.398C25.7891 180.711 27.3984 182.625 28.5234 185.141C29.6484 187.641 30.2109 190.555 30.2109 193.883V196.039ZM25.7344 193.836C25.7344 189.789 24.9219 186.688 23.2969 184.531C21.6719 182.359 19.3984 181.273 16.4766 181.273C13.6328 181.273 11.3906 182.359 9.75 184.531C8.125 186.688 7.28906 189.688 7.24219 193.531V196.039C7.24219 199.961 8.0625 203.047 9.70312 205.297C11.3594 207.531 13.6328 208.648 16.5234 208.648C19.4297 208.648 21.6797 207.594 23.2734 205.484C24.8672 203.359 25.6875 200.32 25.7344 196.367V193.836ZM51.1566 198.195H43.1409V212H38.6175V177.875H49.9144C53.7581 177.875 56.7113 178.75 58.7738 180.5C60.8519 182.25 61.8909 184.797 61.8909 188.141C61.8909 190.266 61.3128 192.117 60.1566 193.695C59.0159 195.273 57.4222 196.453 55.3753 197.234L63.3909 211.719V212H58.5628L51.1566 198.195ZM43.1409 194.516H50.055C52.2894 194.516 54.0628 193.938 55.3753 192.781C56.7034 191.625 57.3675 190.078 57.3675 188.141C57.3675 186.031 56.7347 184.414 55.4691 183.289C54.2191 182.164 52.4066 181.594 50.0316 181.578H43.1409V194.516Z" fill="black"/>
</svg>
