<svg width="440" height="292" viewBox="0 0 440 292" fill="none" xmlns="http://www.w3.org/2000/svg">
<path opacity="0.2" d="M39.0364 140.48L59.6148 114.664L77.1982 125.994C77.6675 126.297 78.0516 126.715 78.3141 127.208C78.5766 127.701 78.7087 128.253 78.698 128.812C78.6873 129.37 78.534 129.917 78.2528 130.399C77.9716 130.882 77.5718 131.285 77.0912 131.57L30.5346 159.135C30.0109 159.444 29.4115 159.602 28.8034 159.59C28.1954 159.578 27.6026 159.397 27.0914 159.068C26.5802 158.738 26.1708 158.273 25.9088 157.724C25.6468 157.175 25.5427 156.564 25.6081 155.96L31.4862 102.18C31.5471 101.625 31.7489 101.094 32.0724 100.639C32.3958 100.183 32.8303 99.8183 33.3345 99.5779C33.8387 99.3375 34.396 99.23 34.9535 99.2654C35.5109 99.3009 36.0501 99.4781 36.5198 99.7804L54.1016 111.114L39.0348 140.483L39.0364 140.48Z" fill="#6C63FF"/>
<rect opacity="0.2" x="15.5" y="1.5" width="497" height="497" rx="248.5" stroke="black" stroke-width="3"/>
<g filter="url(#filter0_d_75_223)">
<path d="M39.0364 140.48L59.6148 114.664L77.1982 125.994C77.6675 126.297 78.0516 126.715 78.3141 127.208C78.5766 127.701 78.7087 128.253 78.698 128.812C78.6873 129.37 78.534 129.917 78.2528 130.399C77.9716 130.882 77.5718 131.285 77.0912 131.57L30.5346 159.135C30.0109 159.444 29.4115 159.602 28.8034 159.59C28.1954 159.578 27.6026 159.397 27.0914 159.068C26.5802 158.738 26.1708 158.273 25.9088 157.724C25.6468 157.175 25.5427 156.564 25.6081 155.96L31.4862 102.18C31.5471 101.625 31.7489 101.094 32.0724 100.639C32.3958 100.183 32.8303 99.8183 33.3345 99.5779C33.8387 99.3375 34.396 99.23 34.9535 99.2654C35.5109 99.3009 36.0501 99.4781 36.5198 99.7804L54.1016 111.114L39.0348 140.483L39.0364 140.48Z" fill="#6C63FF" fill-opacity="0.2" shape-rendering="crispEdges"/>
</g>
<defs>
<filter id="filter0_d_75_223" x="0.588867" y="74.2588" width="103.11" height="110.332" filterUnits="userSpaceOnUse" color-interpolation-filters="sRGB">
<feFlood flood-opacity="0" result="BackgroundImageFix"/>
<feColorMatrix in="SourceAlpha" type="matrix" values="0 0 0 0 0 0 0 0 0 0 0 0 0 0 0 0 0 0 127 0" result="hardAlpha"/>
<feOffset/>
<feGaussianBlur stdDeviation="12.5"/>
<feComposite in2="hardAlpha" operator="out"/>
<feColorMatrix type="matrix" values="0 0 0 0 0.423529 0 0 0 0 0.388235 0 0 0 0 1 0 0 0 0.25 0"/>
<feBlend mode="normal" in2="BackgroundImageFix" result="effect1_dropShadow_75_223"/>
<feBlend mode="normal" in="SourceGraphic" in2="effect1_dropShadow_75_223" result="shape"/>
</filter>
</defs>
</svg>
